<svg xmlns="http://www.w3.org/2000/svg" baseProfile="full" version="1.1" width="360px" height="375px" style="fill: none; width: 360px; height: 375px;"><path d="M345,180 L345,180 L315,180 L180,360 L45,180 L15,180 L345,180 M135,180 A45,45 0 0,1 180,135 A45,45 0 0,1 225,180 M285,75 L285,75 L315,45 M180,30 L180,30 L180,15 M75,75 L75,75 L45,45 M30,150 L30,150 L15,150 M330,150 L330,150 L345,150 M60,180 L300,180 " style="stroke-width: 25; stroke-linecap: round; stroke-linejoin: round; stroke: rgb(254, 223, 0); fill: rgb(254, 223, 0);"/><path d="M60,180 L60,180 L135,180 A45,45 0 0,1 180,135 A45,45 0 0,1 225,180 L225,180 L300,180 A120,120 0 0,0 180,60 A120,120 0 0,0 60,180 " style="stroke-width: 5; stroke-linecap: round; stroke-linejoin: round; stroke: rgb(10, 10, 10); fill: rgb(10, 10, 10);"/><path d="M60,180 L300,180 M165,180 L195,180 M135,180 L225,180 M45,180 L45,180 L180,360 L315,180 M345,180 L345,180 L15,180 M285,75 L285,75 L315,45 M75,75 L75,75 L45,45 M180,30 L180,30 L180,15 M30,150 L30,150 L15,150 M345,150 L345,150 L330,150 M165,180 A15,15 0 0,1 180,165 A15,15 0 0,1 195,180 " style="stroke-width: 15; stroke-linecap: round; stroke-linejoin: round; stroke: rgb(10, 10, 10); fill: none;"/></svg>